<?xml version="1.0" encoding="UTF-8"?>
<svg version="1.1" xmlns="http://www.w3.org/2000/svg" width="512" height="512">
<path d="M0 0 C168.96 0 337.92 0 512 0 C512 168.96 512 337.92 512 512 C343.04 512 174.08 512 0 512 C0 343.04 0 174.08 0 0 Z " fill="#FFC106" transform="translate(0,0)"/>
<path d="M0 0 C1.29801597 -0.00807831 1.29801597 -0.00807831 2.62225449 -0.01631981 C5.50939403 -0.03057797 8.39607368 -0.02350093 11.28323364 -0.01637268 C13.35831062 -0.02207739 15.43338447 -0.02904204 17.50845337 -0.03717041 C23.13660812 -0.0551065 28.76460699 -0.05393244 34.39278173 -0.04822803 C39.0945371 -0.04513658 43.79626251 -0.05122821 48.49801362 -0.05726677 C59.59213576 -0.07131212 70.68618091 -0.06975083 81.78030396 -0.05836487 C93.21778908 -0.04688575 104.65503967 -0.06095596 116.09249389 -0.08776134 C125.91946273 -0.1099283 135.74635801 -0.11655339 145.57335007 -0.11068493 C151.43938763 -0.10731631 157.30527487 -0.10972423 163.17129135 -0.12693596 C168.68878751 -0.14241855 174.20593667 -0.13843466 179.72341919 -0.11963081 C181.74501607 -0.11594849 183.76663872 -0.11904294 185.78821182 -0.1295166 C188.55484349 -0.14275276 191.32033083 -0.13115579 194.08691406 -0.11352539 C194.88080469 -0.1231304 195.67469532 -0.1327354 196.49264324 -0.14263147 C204.11197119 -0.04320314 210.99935655 2.58298434 216.43338013 8.03538513 C217.14053665 8.73323624 217.84769318 9.43108734 218.57627869 10.15008545 C219.66896309 11.26736275 219.66896309 11.26736275 220.78372192 12.4072113 C221.56055832 13.18400742 222.33739471 13.96080353 223.13777161 14.76113892 C224.76802448 16.39672541 226.39219997 18.0383899 228.01052856 19.68577576 C230.47910507 22.1962793 232.96840564 24.68470652 235.4614563 27.17088318 C237.04931415 28.76923258 238.63594537 30.36880169 240.22122192 31.9697113 C240.95979935 32.70849014 241.69837677 33.44726898 242.45933533 34.20843506 C243.15073105 34.91574265 243.84212677 35.62305023 244.55447388 36.35179138 C245.15798172 36.96371841 245.76148956 37.57564545 246.38328552 38.20611572 C251.0813607 43.94101414 252.76931246 48.27203392 252.70388794 55.67454529 C252.71250351 56.47226349 252.72111908 57.26998169 252.72999573 58.09187317 C252.75256753 60.71034348 252.74593319 63.32773582 252.73684692 65.9462738 C252.74208658 67.77798783 252.74836431 69.60969915 252.75563049 71.44140625 C252.7660186 75.27364328 252.76149641 79.10550862 252.74685669 82.93772888 C252.72967493 87.83483612 252.7531647 92.73076934 252.78834629 97.62774563 C252.81036775 101.40861705 252.8088673 105.18920962 252.80058098 108.9701252 C252.79976399 110.77494151 252.80657896 112.57977881 252.82135201 114.38453484 C252.94619583 132.39633945 252.94619583 132.39633945 247.17044067 138.38768005 C246.27907661 139.38705345 246.27907661 139.38705345 245.3697052 140.40661621 C243.30797705 142.64566925 241.17905801 144.79516631 239.01809692 146.9384613 C238.24034409 147.71908432 237.46259125 148.49970734 236.66127014 149.3039856 C235.02518847 150.94209792 233.38535556 152.57647141 231.74197388 154.20726013 C229.2334555 156.69966853 226.74140195 159.20773892 224.2505188 161.71775818 C222.65317287 163.31312235 221.05489693 164.90755602 219.45559692 166.5009613 C218.71479385 167.24783707 217.97399078 167.99471283 217.21073914 168.76422119 C211.45386848 174.44377973 207.01147822 177.71175715 198.74969482 177.75178528 C197.95268158 177.74248993 197.15566833 177.73319458 196.33450317 177.72361755 C194.61314524 177.73613028 192.89179105 177.74916741 191.17044067 177.76268005 C188.482479 177.76660409 185.79489018 177.76267705 183.10696411 177.74803162 C180.49475779 177.73941047 177.88407543 177.76122397 175.27200317 177.78611755 C174.47903839 177.77277374 173.68607361 177.75942993 172.86907959 177.74568176 C164.89616194 177.85005397 159.36223741 181.75250696 153.85794067 187.32518005 C153.22243286 187.95295349 152.58692505 188.58072693 151.93215942 189.2275238 C147.66079309 194.46491977 146.74528423 199.17331757 146.79934692 205.78611755 C146.78196333 207.41632797 146.76437896 209.04653626 146.74661255 210.67674255 C146.73656016 213.21975185 146.73294063 215.76262049 146.73464966 218.3056488 C146.73105508 220.77872009 146.70362615 223.25073609 146.67434692 225.72361755 C146.68252945 226.47283478 146.69071198 227.222052 146.69914246 227.99397278 C146.60604864 234.68037887 144.55698995 240.00113078 139.79544067 244.76268005 C134.00650285 248.34630823 128.74130313 248.67200179 122.13577271 248.61473083 C120.80309608 248.61516891 120.80309608 248.61516891 119.4434967 248.61561584 C116.52164777 248.61422813 113.60005729 248.59869322 110.67825317 248.58299255 C108.64658752 248.57926044 106.61492006 248.5764144 104.58325195 248.57441711 C99.24688715 248.56679629 93.91063194 248.54716109 88.5743103 248.52500916 C83.12459801 248.50451732 77.67486793 248.49540826 72.22512817 248.4853363 C61.5401843 248.46391376 50.85532162 248.42979652 40.17044067 248.38768005 C40.04323662 241.27117587 39.9559199 234.15496693 39.89578247 227.0375824 C39.87070195 224.61852563 39.83662918 222.19954417 39.79324341 219.78074646 C39.73231022 216.29536821 39.70416504 212.81099541 39.68215942 209.32518005 C39.656353 208.25090759 39.63054657 207.17663513 39.60395813 206.06980896 C39.59956291 194.19358385 45.64481097 188.51724318 53.66371155 180.47756958 C54.78927102 179.35737921 55.91522147 178.23758157 57.04153442 177.1181488 C58.20872539 175.94893341 59.37547101 174.77927329 60.54179382 173.60919189 C62.97705226 171.169531 65.41760166 168.73532691 67.86209106 166.30491638 C70.98704051 163.19709553 74.09827506 160.07594636 77.20568752 156.95060253 C79.60838619 154.53704227 82.01821031 152.13069854 84.43022346 149.72644997 C85.58021996 148.57844692 86.72801368 147.4282327 87.87350273 146.27573204 C89.47630002 144.66527696 91.08846974 143.06481402 92.70339966 141.46653748 C93.61653427 140.55578964 94.52966888 139.64504181 95.47047424 138.70669556 C99.99633503 134.8194097 103.83403059 133.01588695 109.8052063 133.00291443 C110.88652832 132.99280334 111.96785034 132.98269226 113.0819397 132.97227478 C114.23520752 132.97529602 115.38847534 132.97831726 116.57669067 132.98143005 C118.37378479 132.96517578 118.37378479 132.96517578 120.20718384 132.94859314 C125.3210362 132.90279546 130.43483797 132.8912579 135.54885864 132.87644958 C139.28748587 132.86074707 143.02569048 132.82774386 146.76419067 132.79393005 C147.9174585 132.79695129 149.07072632 132.79997253 150.25894165 132.80308533 C156.77627747 132.74214388 161.77464099 132.48503653 166.81497192 127.88768005 C171.02659115 122.47877777 171.34861378 118.43681505 171.40872192 111.7743988 C171.42082954 110.5036425 171.42082954 110.5036425 171.43318176 109.20721436 C171.44700758 107.41428159 171.45773645 105.62132268 171.46560669 103.82835388 C171.4828117 101.09566499 171.52670916 98.36418879 171.5708313 95.63182068 C171.58095954 93.88768893 171.58947524 92.14354691 171.59622192 90.3993988 C171.62248405 89.18035103 171.62248405 89.18035103 171.64927673 87.93667603 C171.62015716 80.26579765 168.10631161 76.03900294 162.79544067 70.70018005 C161.70102661 69.58062927 161.70102661 69.58062927 160.58450317 68.4384613 C154.2794115 63.0821941 148.72346796 62.94599818 140.78421021 62.96775818 C139.64526306 62.95928864 138.50631592 62.95081909 137.33285522 62.9420929 C133.57287386 62.91871972 129.81330166 62.91770089 126.05325317 62.91893005 C123.4354028 62.91182853 120.81755398 62.90412955 118.19970703 62.89585876 C112.71384362 62.88126837 107.2280939 62.8806641 101.74221802 62.88670349 C95.4152194 62.89334114 89.08880423 62.87048599 82.76192391 62.83338976 C76.65898946 62.79891451 70.55632932 62.79236217 64.45330429 62.79647827 C61.86418801 62.79478659 59.27506407 62.78513961 56.68600845 62.76733398 C53.06202419 62.74515413 49.43944043 62.75484362 45.81546021 62.77244568 C44.75026154 62.75918243 43.68506287 62.74591919 42.58758545 62.73225403 C34.23803316 62.82629422 29.69529232 65.3406873 23.49075317 70.7040863 C22.76630005 71.44529724 22.04184692 72.18650818 21.29544067 72.95018005 C20.5555188 73.69396912 19.81559692 74.43775818 19.05325317 75.2040863 C15.53914101 79.27958153 14.92625216 82.21575679 14.89700317 87.5868988 C14.87637817 88.79668396 14.85575317 90.00646912 14.83450317 91.25291443 C14.80866179 93.78149393 14.79031361 96.31016218 14.77981567 98.83885193 C14.64196229 106.06466656 14.46362417 112.36242202 10.17044067 118.38768005 C4.03541437 123.98107641 -1.44721066 125.27305946 -9.56002808 125.11424255 C-11.05110832 125.11573807 -11.05110832 125.11573807 -12.5723114 125.11726379 C-14.65903788 125.11261093 -16.74577861 125.0933234 -18.83224487 125.06004333 C-22.01922048 125.01264791 -25.20286501 125.01896486 -28.3901062 125.0322113 C-30.42593335 125.02106201 -32.4617465 125.00684491 -34.49752808 124.98924255 C-35.44452072 124.99106537 -36.39151337 124.99288818 -37.36720276 124.99476624 C-44.13520387 124.85003009 -47.52748854 123.52503947 -52.47409058 118.82518005 C-56.51629694 113.85015684 -56.94965306 110.55795314 -57.00656128 104.26145935 C-57.01939651 103.02304794 -57.03223175 101.78463654 -57.04545593 100.50869751 C-57.05362417 99.1597687 -57.06106774 97.81083534 -57.06784058 96.4618988 C-57.0719161 95.77925272 -57.07599163 95.09660664 -57.08019066 94.39327431 C-57.10101251 90.78016594 -57.11533113 87.16709511 -57.12472534 83.55393982 C-57.13578399 79.83498661 -57.1701878 76.11663265 -57.20989704 72.39789104 C-57.23612088 69.52642758 -57.2444222 66.65510576 -57.24800682 63.7835331 C-57.25285766 62.41327172 -57.26442868 61.04301604 -57.28304482 59.67287254 C-57.41995034 48.92929604 -56.26637588 44.00565207 -49.09005737 36.24412537 C-47.59876532 34.72648348 -46.09868575 33.21744116 -44.59127808 31.71580505 C-43.79228592 30.91157104 -42.99329376 30.10733704 -42.17008972 29.2787323 C-40.48524073 27.58748344 -38.79653558 25.90006839 -37.10421753 24.21629333 C-34.52362252 21.64422157 -31.96225629 19.05402534 -29.40182495 16.4618988 C-27.7577743 14.81623625 -26.11262811 13.17166727 -24.46627808 11.52830505 C-23.70562546 10.75641846 -22.94497284 9.98453186 -22.16127014 9.18925476 C-21.4339418 8.47130737 -20.70661346 7.75335999 -19.95724487 7.01365662 C-19.32755295 6.38413086 -18.69786102 5.7546051 -18.04908752 5.10600281 C-12.31766589 0.66882908 -7.00815921 -0.05275787 0 0 Z " fill="#76612a" transform="translate(162.82955932617188,78.61231994628906)"/>
<path d="M0 0 C1.18567062 -0.0098568 1.18567062 -0.0098568 2.39529419 -0.01991272 C5.01776215 -0.03966323 7.64017277 -0.051313 10.26269531 -0.0612793 C11.15804237 -0.06535482 12.05338943 -0.06943035 12.97586823 -0.07362938 C17.71600617 -0.09449892 22.45611509 -0.10879605 27.19628906 -0.11816406 C32.09014457 -0.12922236 36.98354461 -0.16361294 41.87723923 -0.20333576 C45.64167113 -0.22949725 49.40599452 -0.23785554 53.17050934 -0.24144554 C54.97420574 -0.24631376 56.77789723 -0.2579345 58.58150482 -0.27648354 C61.1093894 -0.30086243 63.63609606 -0.2999124 66.1640625 -0.29296875 C66.90610931 -0.30577881 67.64815613 -0.31858887 68.41268921 -0.33178711 C74.31763505 -0.27281719 77.81566827 1.72382575 81.98535156 5.7746582 C85.13523021 9.7251749 86.4567441 12.44992504 86.50195312 17.46142578 C86.51156067 18.32274612 86.52116821 19.18406647 86.53106689 20.07148743 C86.53531677 20.99962753 86.53956665 21.92776764 86.54394531 22.8840332 C86.54964539 23.8421843 86.55534546 24.80033539 86.56121826 25.78752136 C86.57066576 27.81585588 86.57720125 29.84420573 86.58105469 31.87255859 C86.59075029 34.96715265 86.62177208 38.06107968 86.65332031 41.15551758 C86.65985161 43.12751885 86.66510158 45.09952486 86.66894531 47.0715332 C86.68129211 47.99360062 86.69363892 48.91566803 86.70635986 49.86567688 C86.68539155 55.94968834 85.90779712 60.39416573 81.62207031 65.0402832 C81.03425781 65.51852539 80.44644531 65.99676758 79.84082031 66.48950195 C78.95910156 67.22620117 78.95910156 67.22620117 78.05957031 67.9777832 C74.2089563 70.66446162 70.15182839 70.33761979 65.65991211 70.35400391 C64.4886528 70.3638607 64.4886528 70.3638607 63.29373169 70.37391663 C60.70916649 70.39363028 58.12465933 70.40530759 55.54003906 70.4152832 C54.21494292 70.42139649 54.21494292 70.42139649 52.86307716 70.42763329 C48.18777323 70.44848528 43.51249857 70.46279105 38.8371582 70.47216797 C34.01171009 70.48323365 29.18672295 70.51763774 24.3614378 70.55733967 C20.64762014 70.58349996 16.93391245 70.59185925 13.22001076 70.59544945 C11.44143369 70.60031653 9.66286157 70.61193403 7.88437462 70.63048744 C5.39251655 70.65486806 2.90185325 70.65391626 0.40991211 70.64697266 C-0.32121292 70.65978271 -1.05233795 70.67259277 -1.80561829 70.68579102 C-7.67071394 70.62637659 -11.16388167 68.60117508 -15.30371094 64.5793457 C-18.48201005 60.59318461 -19.77198993 57.85215974 -19.83618164 52.80078125 C-19.84901688 51.91944016 -19.86185211 51.03809906 -19.87507629 50.13005066 C-19.88246323 49.18003677 -19.88985016 48.23002289 -19.89746094 47.2512207 C-19.90553268 46.27087357 -19.91360443 45.29052643 -19.92192078 44.2804718 C-19.93575249 42.20506555 -19.94647872 40.12963665 -19.9543457 38.05419922 C-19.97155737 34.88701088 -20.01545192 31.7208668 -20.05957031 28.55395508 C-20.06969768 26.53638462 -20.07821365 24.5188053 -20.08496094 22.5012207 C-20.11122307 21.08530891 -20.11122307 21.08530891 -20.13801575 19.64079285 C-20.11569646 12.84485813 -18.87421785 9.41511455 -14.02636719 4.5324707 C-9.01784912 0.61219085 -6.2367662 0.0223558 0 0 Z " fill="#76612a" transform="translate(222.6591796875,370.822998046875)"/>
<path d="M0 0 C4.50334071 3.23992499 7.52260466 7.39203273 9.26953125 12.6328125 C9.82529193 19.24850217 9.92477297 25.87671757 6.26953125 31.6328125 C1.51217475 36.9467692 -3.10596693 40.25841505 -10.3359375 40.84375 C-15.91821655 41.03961944 -19.9560921 40.81573027 -24.73046875 37.6328125 C-25.57609375 37.1171875 -26.42171875 36.6015625 -27.29296875 36.0703125 C-32.11842735 31.2448539 -34.99646744 25.36970003 -35.29296875 18.5078125 C-34.85204617 11.2834656 -32.07097537 6.59681668 -26.79296875 1.7578125 C-18.34421283 -5.04769915 -9.48786382 -5.22953124 0 0 Z " fill="#76612a" transform="translate(78.73046875,47.3671875)"/>
<path d="M0 0 C4.72924803 3.51511396 9.62553351 8.51681264 10.88671875 14.40234375 C11.87074687 22.01489466 10.52866486 28.20241113 5.88671875 34.40234375 C-0.16811489 39.63007227 -5.54063564 41.74409048 -13.48828125 41.60546875 C-19.843158 41.11372233 -23.7056195 39.20667748 -27.98828125 34.46484375 C-33.5743571 27.72258011 -33.92144048 22.05379188 -33.11328125 13.40234375 C-31.37762067 6.60250896 -26.92132217 2.96930221 -21.11328125 -0.59765625 C-14.65065482 -4.33917681 -6.35055424 -3.6196871 0 0 Z " fill="#76612a" transform="translate(457.11328125,46.59765625)"/>
<path d="M0 0 C4.63604465 2.94398616 7.85861836 7.18989297 10.2890625 12.05078125 C11.70719677 19.92930497 11.34936598 25.86813021 7.41015625 32.9765625 C5.05542219 36.29915717 2.4147485 38.27375422 -1.1484375 40.17578125 C-1.9115625 40.60890625 -2.6746875 41.04203125 -3.4609375 41.48828125 C-10.02869208 43.16840452 -16.31009921 42.97042742 -22.26171875 39.578125 C-26.99096678 36.06301104 -31.88725226 31.06131236 -33.1484375 25.17578125 C-34.13973638 17.506983 -32.68567268 11.48232105 -28.1484375 5.17578125 C-20.35888955 -2.29551669 -10.12370835 -4.39527256 0 0 Z " fill="#76612a" transform="translate(77.1484375,425.82421875)"/>
<path d="M0 0 C4.63781003 3.47237068 7.45691376 8.26136629 9.26953125 13.69921875 C10.00947533 20.52853869 9.42972181 26.10208214 5.26953125 31.69921875 C-0.01831654 37.29616829 -4.63629618 40.65263336 -12.41796875 41.13671875 C-18.94904157 40.9905007 -24.48588203 38.53348303 -29.3984375 34.2421875 C-34.23233606 28.86961402 -35.16738511 23.19188797 -34.96875 16.21875 C-34.37984713 9.99182626 -32.52619174 6.09761866 -27.91796875 1.82421875 C-19.35649773 -4.99698956 -9.49236554 -5.2170639 0 0 Z " fill="#76612a" transform="translate(458.73046875,427.30078125)"/>
<!-- <path d="M0 0 C0.33 0 0.66 0 1 0 C1 13.86 1 27.72 1 42 C-13.19 42 -27.38 42 -42 42 C-42 41.67 -42 41.34 -42 41 C-41.18917969 40.79246094 -40.37835938 40.58492188 -39.54296875 40.37109375 C-25.08937421 36.34966291 -14.08138161 28.99581741 -6.1875 16.125 C-3.2904053 10.92610403 -1.34478376 5.78897392 0 0 Z " fill="#000000" transform="translate(511,470)"/> -->
<!-- <path d="M0 0 C1.61102614 3.22205228 2.90350921 6.33510084 4.1875 9.6875 C9.63436563 22.75680149 19.40772589 31.82575945 32.11328125 37.8125 C35.72596973 39.29863978 39.16799416 40.2630758 43 41 C43 41.33 43 41.66 43 42 C28.81 42 14.62 42 0 42 C0 28.14 0 14.28 0 0 Z " fill="#000000" transform="translate(0,470)"/>
<path d="M0 0 C14.19 0 28.38 0 43 0 C43 13.86 43 27.72 43 42 C41.38897386 38.77794772 40.09649079 35.66489916 38.8125 32.3125 C33.36563437 19.24319851 23.59227411 10.17424055 10.88671875 4.1875 C7.27403027 2.70136022 3.83200584 1.7369242 0 1 C0 0.67 0 0.34 0 0 Z " fill="#000000" transform="translate(469,0)"/>
<path d="M0 0 C13.86 0 27.72 0 42 0 C38.77794772 1.61102614 35.66489916 2.90350921 32.3125 4.1875 C18.1274922 10.09935623 8.89090815 21.00909313 3 35 C2.18056725 37.34011082 1.55011656 39.57948712 1 42 C0.67 42 0.34 42 0 42 C0 28.14 0 14.28 0 0 Z " fill="#000000" transform="translate(0,0)"/> -->
</svg>
